<?xml version="1.0" standalone="no"?>
<!DOCTYPE svg PUBLIC "-//W3C//DTD SVG 20010904//EN"
 "http://www.w3.org/TR/2001/REC-SVG-20010904/DTD/svg10.dtd">
<svg version="1.0" xmlns="http://www.w3.org/2000/svg"
 width="152.000000pt" height="152.000000pt" viewBox="0 0 152.000000 152.000000"
 preserveAspectRatio="xMidYMid meet">
<metadata>
Created by potrace 1.11, written by Peter Selinger 2001-2013
</metadata>
<g transform="translate(0.000000,152.000000) scale(0.100000,-0.100000)"
fill="#000000" stroke="none">
<path d="M665 1341 c-4 -8 -1 -62 9 -155 2 -15 8 -31 12 -35 28 -19 154 -113
155 -114 0 -1 3 -30 5 -65 5 -52 2 -67 -13 -84 -16 -18 -26 -20 -103 -14 -47
3 -94 8 -105 10 -11 2 -56 7 -100 11 -44 4 -91 8 -105 10 -14 1 -58 -12 -99
-29 l-73 -31 -47 -103 c-42 -91 -56 -111 -119 -170 l-72 -67 78 -82 77 -81 3
-63 c1 -35 4 -64 6 -66 7 -7 45 -11 171 -18 72 -3 141 -8 155 -10 14 -2 86 -6
160 -10 74 -4 137 -7 140 -7 17 -1 30 3 30 11 0 5 -31 45 -70 90 -38 44 -70
84 -70 89 0 5 12 15 28 23 15 7 29 15 32 16 3 2 40 -39 83 -90 l76 -93 75 -18
c42 -10 77 -17 78 -16 2 1 15 -3 30 -9 16 -6 30 -7 33 -1 3 5 -18 50 -46 100
-28 50 -49 93 -47 96 5 4 104 -21 211 -52 30 -9 19 16 -43 93 l-60 75 41 49
c22 27 44 51 48 54 5 2 34 5 66 6 54 2 60 5 113 53 30 28 63 58 73 67 24 21
24 38 -2 114 -19 57 -24 63 -77 92 -198 107 -272 143 -284 138 -9 -4 -34 37
-83 136 -39 77 -75 145 -81 149 -19 16 -53 -19 -65 -66 -14 -53 -9 -54 -130
21 -48 30 -91 51 -94 46z m373 -276 l31 -50 -34 -34 -34 -34 -149 111 c-149
112 -149 112 -156 158 -14 102 -23 103 153 -4 140 -86 162 -103 189 -147z
m-35 133 c31 -62 47 -101 35 -86 -13 14 -49 43 -81 63 -42 26 -57 41 -53 53 2
9 7 32 11 50 4 17 12 32 18 32 7 0 38 -51 70 -112z m282 -247 l150 -79 22 -63
21 -64 -66 -62 c-37 -35 -74 -63 -82 -64 -41 -4 -70 -6 -118 -9 l-54 -4 -101
81 c-56 45 -115 93 -132 107 l-30 26 50 44 c28 24 79 71 115 105 36 33 67 60
70 61 3 0 73 -36 155 -79z m-348 12 l42 -33 -42 -40 c-23 -21 -45 -36 -49 -32
-3 4 -9 40 -12 80 -7 82 -9 81 61 25z m-357 -98 c3 -2 46 -6 95 -10 50 -4 92
-9 94 -11 2 -2 -3 -12 -11 -21 -9 -10 -19 -45 -23 -78 -4 -33 -8 -71 -10 -85
-10 -65 -17 -116 -20 -130 -2 -8 -4 -18 -4 -22 -1 -9 -409 313 -410 323 -1 4
20 16 47 27 41 18 60 21 142 16 52 -3 97 -7 100 -9z m280 -23 c0 -25 20 -44
142 -143 79 -63 153 -116 165 -119 20 -5 19 -8 -20 -50 -23 -25 -61 -68 -84
-95 -28 -32 -46 -46 -52 -40 -15 16 -231 394 -231 405 0 11 61 69 73 70 4 0 7
-13 7 -28z m-500 -142 c46 -55 222 -261 269 -315 56 -65 137 -161 149 -176 14
-19 47 -19 -363 7 -49 3 -116 7 -148 9 -65 3 -70 6 -73 38 -3 38 -17 341 -16
357 0 8 19 55 42 104 l42 90 26 -31 c15 -16 47 -54 72 -83z m571 -223 c87
-150 153 -273 149 -275 -4 -2 -42 6 -84 17 -53 13 -82 26 -95 43 -10 12 -54
67 -98 121 l-79 98 12 82 c14 98 23 167 23 186 1 8 4 11 9 7 4 -4 77 -130 163
-279z m-451 167 c47 -38 104 -82 125 -99 22 -16 62 -51 89 -76 l50 -47 -40
-20 -40 -21 -95 111 c-52 62 -98 116 -104 122 -35 39 -97 119 -85 110 8 -6 53
-42 100 -80z m-329 -56 c0 -2 2 -41 5 -88 2 -47 6 -94 9 -104 2 -12 -19 3 -55
39 -33 33 -60 63 -60 68 0 17 97 98 101 85z m1009 -170 c18 -24 38 -49 44 -57
12 -15 14 -16 -86 14 l-57 17 26 34 c14 19 29 34 33 34 3 0 22 -19 40 -42z"/>
</g>
</svg>
