<?xml version="1.0" encoding="UTF-8"?>
<svg width="172px" height="45px" viewBox="0 0 172 45" version="1.1" xmlns="http://www.w3.org/2000/svg" xmlns:xlink="http://www.w3.org/1999/xlink">
    <!-- Generator: Sketch 59.1 (86144) - https://sketch.com -->
    <title>Group 6</title>
    <desc>Created with Sketch.</desc>
    <g id="Page-1" stroke="none" stroke-width="1" fill="none" fill-rule="evenodd">
        <g id="HOME-Copy" transform="translate(-118.000000, -56.000000)">
            <g id="Group-6" transform="translate(118.000000, 56.000000)">
                <text id="park-güell" font-family="Futura-Bold, Futura" font-size="20" font-weight="bold" letter-spacing="0.0472826667" fill="#FFFFFF">
                    <tspan x="62" y="26">park güell</tspan>
                </text>
                <g id="noun_Logo_2471355" fill="#FBFBFB">
                    <g id="Group">
                        <path d="M14.1367187,45 C5.69140625,41.5102041 -3.55271368e-15,33.244898 -3.55271368e-15,23.5102041 C-3.55271368e-15,19.1020408 1.1015625,14.877551 3.3046875,11.3877551 C5.32421875,10.8367347 7.52734375,10.6530612 9.73046875,10.6530612 L9.73046875,10.6530612 L9.73046875,10.6530612 L9.73046875,10.6530612 L9.73046875,10.6530612 C17.9921875,10.6530612 25.3359375,13.9591837 30.6601562,19.2857143 C35.6171875,24.244898 38.7382812,30.6734694 39.2890625,38.0204082 C37.8203125,33.0612245 35.25,28.8367347 31.7617187,25.3469388 C26.4375,20.0204082 19.09375,16.7142857 10.8320312,16.7142857 L10.8320312,16.7142857 L10.8320312,16.7142857 L10.8320312,16.7142857 L10.8320312,16.7142857 C10.28125,16.7142857 9.73046875,16.7142857 9.1796875,16.7142857 C8.078125,19.8367347 7.52734375,23.1428571 7.52734375,26.4489796 L7.52734375,26.4489796 L7.52734375,26.6326531 L7.52734375,26.6326531 L7.52734375,26.6326531 C7.52734375,33.6122449 10.0976562,40.0408163 14.1367187,45 Z" id="Path"></path>
                        <path d="M23.5,-3.19744231e-14 C36.3515625,-3.19744231e-14 47,10.4693878 47,23.5102041 C47,29.755102 44.4296875,35.4489796 40.5742188,39.6734694 C40.390625,31.4081633 36.9023438,24.0612245 31.578125,18.5510204 C25.8867188,13.0408163 18.1757812,9.55102041 9.73046875,9.55102041 L9.73046875,9.55102041 L9.73046875,9.55102041 L9.73046875,9.55102041 L9.73046875,9.55102041 C7.89453125,9.55102041 5.875,9.73469388 4.22265625,10.1020408 C8.4453125,4.04081633 15.421875,-3.19744231e-14 23.5,-3.19744231e-14 Z M9.9140625,7.16326531 L12.1171875,7.16326531 L12.1171875,7.34693878 C20.0117188,7.89795918 27.5390625,11.2040816 33.2304688,16.8979592 C37.8203125,21.4897959 40.7578125,27.1836735 42.2265625,33.4285714 C43.6953125,30.3061224 44.6132812,27 44.6132812,23.5102041 C44.6132812,11.755102 35.0664063,2.3877551 23.5,2.3877551 C18.5429688,2.3877551 13.7695313,4.04081633 9.9140625,7.16326531 Z" id="Shape"></path>
                    </g>
                </g>
            </g>
        </g>
    </g>
</svg>